<?xml version="1.0" encoding="iso-8859-1"?>
<!-- Generator: Adobe Illustrator 19.0.0, SVG Export Plug-In . SVG Version: 6.00 Build 0)  -->
<svg version="1.1" id="Layer_1" xmlns="http://www.w3.org/2000/svg" xmlns:xlink="http://www.w3.org/1999/xlink" x="0px" y="0px"
	 viewBox="0 0 300.013 300.013" style="enable-background:new 0 0 300.013 300.013;" xml:space="preserve">
<g>
	<g>
		<g>
			<path d="M150.008,93.757c-56.419,0-87.5,24.412-87.5,68.75c0,45.4,18.287,131.25,87.5,131.25s87.5-85.85,87.5-131.25
				C237.508,118.169,206.427,93.757,150.008,93.757z M150.008,281.257c-59.325,0-75-77.688-75-118.75
				c0-37.331,25.231-56.25,75-56.25s75,18.919,75,56.25C225.008,210.25,205.039,281.257,150.008,281.257z"/>
			<path d="M115.083,86.444c9.781-2.313,21.938-5.188,34.931-5.188c12.856,0,25.319,2.838,35.331,5.112
				c7.569,1.737,14.112,3.219,19.4,3.219c9.563,0,15.05-5.319,15.056-14.581c0-42.406-26.737-68.75-69.788-68.75
				c-42.4,0-67.719,25.694-67.719,68.75c0,4.806,1.406,8.544,4.163,11.094C91.839,91.088,101.621,89.644,115.083,86.444z
				 M150.008,18.757c17.225,0,57.287,5.481,57.287,56.25c0,1.181-0.169,1.713-0.144,1.775c-0.175,0.075-0.819,0.306-2.406,0.306
				c-3.869,0-9.775-1.344-16.625-2.9c-10.625-2.431-23.844-5.431-38.112-5.431c-14.45,0-27.406,3.063-37.806,5.525
				c-6.375,1.506-11.881,2.806-15.4,2.806c-1.15,0-1.675-0.188-1.781-0.106c-0.081-0.206-0.231-0.794-0.231-1.975
				C94.789,26.063,129.383,18.757,150.008,18.757z"/>
			<path d="M48.158,114.338c-1.888-1.906-4.794-2.375-7.206-1.175l-25,12.5c-3.081,1.537-4.337,5.3-2.787,8.388
				c1.1,2.194,3.306,3.456,5.6,3.456c0.931,0,1.9-0.213,2.781-0.656l20.962-10.487l9.313,9.313c2.45,2.444,6.394,2.444,8.838,0
				c2.45-2.444,2.45-6.394,0-8.838L48.158,114.338z"/>
			<path d="M39.321,198.175c2.45,2.444,6.394,2.444,8.838,0c2.45-2.444,2.45-6.394,0-8.838l-12.5-12.5
				c-1.888-1.906-4.794-2.369-7.206-1.175l-25,12.5c-3.081,1.537-4.337,5.3-2.787,8.388c1.1,2.194,3.306,3.456,5.6,3.456
				c0.931,0,1.9-0.213,2.781-0.656l20.963-10.487L39.321,198.175z"/>
			<path d="M48.158,239.338c-1.888-1.906-4.794-2.375-7.206-1.175l-25,12.5c-3.081,1.537-4.337,5.3-2.787,8.388
				c1.1,2.194,3.306,3.456,5.6,3.456c0.931,0,1.9-0.213,2.781-0.656l20.962-10.487l9.313,9.313c2.45,2.444,6.394,2.444,8.838,0
				c2.45-2.444,2.45-6.394,0-8.838L48.158,239.338z"/>
			<path d="M248.189,135.675l9.313-9.313l20.962,10.487c0.888,0.444,1.856,0.656,2.788,0.656c2.294,0,4.5-1.263,5.6-3.456
				c1.544-3.088,0.294-6.85-2.794-8.388l-25-12.5c-2.4-1.2-5.294-0.744-7.206,1.175l-12.5,12.5c-2.45,2.444-2.45,6.394,0,8.838
				C241.802,138.119,245.739,138.119,248.189,135.675z"/>
			<path d="M296.558,188.163l-25-12.5c-2.4-1.206-5.294-0.744-7.206,1.175l-12.5,12.5c-2.45,2.444-2.45,6.394,0,8.838
				s6.388,2.444,8.838,0l9.313-9.313l20.962,10.487c0.888,0.444,1.856,0.656,2.788,0.656c2.294,0,4.5-1.263,5.6-3.456
				C300.896,193.463,299.646,189.701,296.558,188.163z"/>
			<path d="M284.058,250.663l-25-12.5c-2.4-1.213-5.294-0.744-7.206,1.175l-12.5,12.5c-2.45,2.444-2.45,6.394,0,8.838
				s6.388,2.444,8.838,0l9.313-9.313l20.962,10.487c0.888,0.444,1.856,0.656,2.788,0.656c2.294,0,4.5-1.263,5.6-3.456
				C288.396,255.963,287.146,252.2,284.058,250.663z"/>
		</g>
	</g>
</g>
<g>
</g>
<g>
</g>
<g>
</g>
<g>
</g>
<g>
</g>
<g>
</g>
<g>
</g>
<g>
</g>
<g>
</g>
<g>
</g>
<g>
</g>
<g>
</g>
<g>
</g>
<g>
</g>
<g>
</g>
</svg>
