<?xml version="1.0" ?><svg width="60px" height="60px" viewBox="0 -19 60 60" version="1.1" xmlns="http://www.w3.org/2000/svg" xmlns:xlink="http://www.w3.org/1999/xlink"><title/><desc/><g fill="none" fill-rule="evenodd" id="Page-1" stroke="none" stroke-width="1"><g fill="#000000" fill-rule="nonzero" id="003---Glasses"><path d="M59,10 L54.949,10 C54.4911141,4.99824279 50.7033716,0.941869089 45.7446578,0.142874845 C40.7859439,-0.656119398 35.9157821,2.00521197 33.91,6.61 C33.68,6.03 32.87,5 30,5 C27.13,5 26.32,6.03 26.09,6.61 C24.0842179,2.00521197 19.2140561,-0.656119398 14.2553422,0.142874845 C9.2966284,0.941869089 5.50888591,4.99824279 5.051,10 L1,10 C0.447715273,10 5.96046448e-08,10.4477153 5.96046448e-08,11 C5.96046447e-08,11.5522847 0.447715273,12 1,12 L5.051,12 C5.6136995,17.8315209 10.6482524,22.1987305 16.5007876,21.9320881 C22.3533229,21.6654456 26.9699011,16.8585289 27,11 C27,11 27,9 30,9 C33,9 33,11 33,11 C33.0002759,11.9205417 33.1144772,12.837511 33.34,13.73 C33.4,13.96 33.46,14.18 33.54,14.4 C35.1598012,19.3576321 40.0384232,22.4962693 45.2214986,21.9152342 C50.4045739,21.3341991 54.467135,17.1932339 54.949,12 L59,12 C59.5522847,12 60,11.5522847 60,11 C60,10.4477153 59.5522847,10 59,10 Z M8.96,14.93 C8.44919448,15.1313065 7.8712293,14.8867828 7.66,14.38 C7.50534959,14.0143183 7.38158407,13.6363317 7.29,13.25 C7.16709494,12.894421 7.25416346,12.4999502 7.51532584,12.2291435 C7.77648822,11.9583367 8.16754383,11.857027 8.52734411,11.9669626 C8.8871444,12.0768981 9.15479467,12.3794729 9.22,12.75 C9.30008732,13.0452656 9.39691047,13.3357351 9.51,13.62 C9.71728174,14.1336096 9.4718027,14.7182961 8.96,14.93 Z M16,4 C12.8080082,4.00143088 10.0203893,6.15998534 9.22,9.25 C9.10583772,9.69215152 8.70665124,10.0008009 8.25,10 C8.1658114,9.99931136 8.08196132,9.98924935 8,9.97 C7.46772322,9.82827831 7.15027534,9.28280449 7.29,8.75 C8.31560367,4.7778522 11.897584,2.00192029 16,2 C16.5522847,2 17,2.44771525 17,3 C17,3.55228475 16.5522847,4 16,4 Z M36.96,14.93 C36.4491945,15.1313065 35.8712293,14.8867828 35.66,14.38 C35.58,14.2 35.52,14.02 35.45,13.83 C35.38,13.64 35.34,13.44 35.29,13.25 C35.1502753,12.7171955 35.4677232,12.1717217 36,12.03 C36.1336063,11.9937249 36.2734974,11.9869009 36.41,12.01 C36.8040069,12.0718287 37.1229077,12.3631702 37.22,12.75 C37.3000873,13.0452656 37.3969105,13.3357351 37.51,13.62 C37.7172817,14.1336096 37.4718027,14.7182961 36.96,14.93 Z M44,4 C40.8080082,4.00143088 38.0203893,6.15998534 37.22,9.25 C37.1069523,9.67620535 36.7304807,9.97981153 36.29,10 L36.24,10 C36.1591115,9.99927815 36.0785773,9.98921138 36,9.97 C35.4677232,9.82827831 35.1502753,9.28280449 35.29,8.75 C35.4189882,8.26098329 35.5861685,7.78284769 35.79,7.32 C37.2397933,4.08425862 40.4543095,2.00128348 44,2 C44.5522847,2 45,2.44771525 45,3 C45,3.55228475 44.5522847,4 44,4 Z" id="Shape"/></g></g></svg>