<?xml version="1.0" encoding="utf-8"?>
<svg viewBox="0 0 24 24" fill="none" xmlns="http://www.w3.org/2000/svg">
  <g style="" transform="matrix(1.212666, 0, 0, 1.323366, -0.095705, -1.114755)">
    <g>
      <path d="M 9.4 10.664 Q 9.4 10.744 9.37 10.815 Q 9.34 10.885 9.288 10.937 Q 9.236 10.988 9.167 11.019 Q 9.097 11.049 9.017 11.049 L 7.984 11.049 Q 7.906 11.049 7.836 11.019 Q 7.765 10.988 7.714 10.937 Q 7.662 10.885 7.632 10.815 Q 7.601 10.744 7.601 10.664 L 7.601 9.354 Q 7.601 9.274 7.632 9.203 Q 7.662 9.133 7.714 9.081 Q 7.765 9.029 7.836 8.999 Q 7.906 8.969 7.984 8.969 L 9.017 8.969 Q 9.097 8.969 9.167 8.999 Q 9.236 9.029 9.288 9.081 Q 9.34 9.133 9.37 9.203 Q 9.4 9.274 9.4 9.354 Z M 7.984 9.354 L 7.984 10.664 L 9.017 10.664 L 9.017 9.354 Z" style="fill: rgb(51, 51, 51); line-height: 437.876px; white-space: pre;"/>
      <path d="M 10.032 9.354 Q 10.032 9.274 10.063 9.203 Q 10.093 9.133 10.145 9.081 Q 10.196 9.029 10.267 8.999 Q 10.337 8.969 10.415 8.969 L 11.487 8.969 L 11.487 8.168 L 11.872 8.168 L 11.872 11.049 L 11.487 11.049 L 11.487 10.697 Q 11.482 10.77 11.448 10.834 Q 11.415 10.899 11.363 10.946 Q 11.312 10.994 11.245 11.022 Q 11.179 11.049 11.105 11.049 L 10.415 11.049 Q 10.337 11.049 10.267 11.019 Q 10.196 10.988 10.145 10.937 Q 10.093 10.885 10.063 10.815 Q 10.032 10.744 10.032 10.664 Z M 10.415 10.664 L 11.487 10.664 L 11.487 9.354 L 10.415 9.354 Z" style="fill: rgb(51, 51, 51); line-height: 437.876px; white-space: pre;"/>
      <path d="M 14.27 10.205 L 12.893 10.205 L 12.893 10.664 L 14.27 10.664 L 14.27 11.049 L 12.893 11.049 Q 12.815 11.049 12.745 11.019 Q 12.674 10.988 12.623 10.937 Q 12.571 10.885 12.541 10.815 Q 12.51 10.744 12.51 10.664 L 12.51 9.354 Q 12.51 9.274 12.541 9.203 Q 12.571 9.133 12.623 9.081 Q 12.674 9.029 12.745 8.999 Q 12.815 8.969 12.893 8.969 L 13.885 8.969 Q 13.965 8.969 14.036 8.999 Q 14.106 9.029 14.158 9.081 Q 14.21 9.133 14.24 9.203 Q 14.27 9.274 14.27 9.354 Z M 12.893 9.354 L 12.893 9.82 L 13.885 9.82 L 13.885 9.354 Z" style="fill: rgb(51, 51, 51); line-height: 437.876px; white-space: pre;"/>
      <path d="M 15.293 9.354 L 15.293 11.049 L 14.91 11.049 L 14.91 8.969 L 15.293 8.969 L 15.293 9.336 Q 15.297 9.26 15.328 9.193 Q 15.359 9.125 15.411 9.075 Q 15.463 9.026 15.531 8.997 Q 15.6 8.969 15.678 8.969 L 16.086 8.969 Q 16.166 8.969 16.235 8.999 Q 16.305 9.029 16.357 9.081 Q 16.41 9.133 16.44 9.203 Q 16.471 9.274 16.471 9.354 L 16.471 9.705 L 16.086 9.705 L 16.086 9.354 Z" style="fill: rgb(51, 51, 51); line-height: 437.876px; white-space: pre;"/>
      <path d="M 18.206 10.664 L 18.206 10.182 L 17.294 10.182 Q 17.214 10.182 17.144 10.152 Q 17.073 10.121 17.022 10.07 Q 16.97 10.018 16.94 9.947 Q 16.909 9.877 16.909 9.797 L 16.909 9.354 Q 16.909 9.274 16.94 9.203 Q 16.97 9.133 17.022 9.081 Q 17.073 9.029 17.144 8.999 Q 17.214 8.969 17.294 8.969 L 18.511 8.969 L 18.511 9.354 L 17.294 9.354 L 17.294 9.797 L 18.206 9.797 Q 18.286 9.797 18.356 9.827 Q 18.425 9.858 18.478 9.909 Q 18.53 9.961 18.561 10.031 Q 18.591 10.102 18.591 10.182 L 18.591 10.664 Q 18.591 10.744 18.561 10.815 Q 18.53 10.885 18.478 10.937 Q 18.425 10.988 18.356 11.019 Q 18.286 11.049 18.206 11.049 L 16.909 11.049 L 16.909 10.664 Z" style="fill: rgb(51, 51, 51); line-height: 437.876px; white-space: pre;"/>
    </g>
    <path clip-rule="evenodd" d="M 8.051 7.797 C 8.11 7.737 8.124 7.645 8.081 7.573 C 7.425 6.455 6.219 5.708 4.841 5.708 C 2.761 5.708 1.075 7.411 1.075 9.511 C 1.075 11.609 2.761 13.312 4.841 13.312 C 5.811 13.312 6.695 12.94 7.362 12.333 C 7.44 12.263 7.439 12.141 7.366 12.068 L 5.727 10.413 C 5.653 10.339 5.653 10.218 5.727 10.144 L 8.051 7.797 Z M 5.216 8.369 C 5.425 8.369 5.594 8.198 5.594 7.989 C 5.594 7.779 5.425 7.609 5.216 7.609 C 5.01 7.609 4.841 7.779 4.841 7.989 C 4.841 8.198 5.01 8.369 5.216 8.369 Z" fill-rule="evenodd" style="paint-order: stroke; fill: rgb(200, 23, 206);"/>
  </g>
</svg>